# xmcd
# 
# Track frame offsets:
#     150
#     12294
#     27521
#     37873
#     49910
#     63917
#     75804
#     87043
#     98530
#     111399
#     127241
#     138738
#     150220
#     164475
#     174517
#     186519
# 
# Disc length: 2630
# 
# Revision: 4
# Processed by: cddbd v1.5.2PL0 Copyright (c) Steve Scherf et al.
# Submitted via: BonkEnc v1.0.8
# 
DISCID=c80a4410
DTITLE=Various Artist - Trucker and Country Hits - CD2
DYEAR=0
DGENRE=Country
TTITLE0=Ferlin Husky - I Could Sing All Night
TTITLE1=Dave Dudley - Deutschland Autobahn
TTITLE2=Bobby Bare - Help Me Make It Through The Night
TTITLE3=Ferlin Husky - Money Greases The Wheels
TTITLE4=George Kent - Doogie Ray
TTITLE5=Bobby Lord - Good Old Song
TTITLE6=Dave Dudley - Get Me Back To Tennessee
TTITLE7=Buddy Meredith - A New Girl In Town
TTITLE8=Bobby Bare - Rosalie
TTITLE9=Karen O'Donnell - I Know What it's
TTITLE10=Dave Price - The Lonesome Truck Driver's Waltz
TTITLE11=Freddy Quinn - Jambalaya
TTITLE12=Barbara Perry - Why Can't Women Have A Good Beer
TTITLE13=Ronnie Rogers - The Fool On The Stool
TTITLE14=Dave Dudley - Six Days On The Road
TTITLE15=Freddy Quinn - Tom Dooley
EXTD=ID3G: 2
EXTT0=
EXTT1=
EXTT2=
EXTT3=
EXTT4=
EXTT5=
EXTT6=
EXTT7=
EXTT8=
EXTT9=
EXTT10=
EXTT11=
EXTT12=
EXTT13=
EXTT14=
EXTT15=
PLAYORDER=
